<svg width="512" xmlns="http://www.w3.org/2000/svg" height="512" id="screenshot-86585e51-05d3-80f9-8007-938657afa237" viewBox="0 0 512 512" xmlns:xlink="http://www.w3.org/1999/xlink" fill="none" version="1.1"><g id="shape-86585e51-05d3-80f9-8007-938657afa237" rx="0" ry="0"><g id="shape-86585e51-05d3-80f9-8007-93826993bcc7"><g class="fills" id="fills-86585e51-05d3-80f9-8007-93826993bcc7"><rect rx="35" ry="35" x="0" y="0" transform="matrix(1.000000, 0.000000, 0.000000, 1.000000, 0.000000, 0.000000)" width="512.0000000000002" height="512"/></g></g><g id="shape-4480d0d3-a3a5-80af-8007-939eb4359529" rx="0" ry="0"><g id="shape-4480d0d3-a3a5-80af-8007-939e8218f8cf"><g class="fills" id="fills-4480d0d3-a3a5-80af-8007-939e8218f8cf"><rect rx="35" ry="35" x="21.000000000000114" y="21" transform="matrix(1.000000, 0.000000, 0.000000, 1.000000, 0.000000, 0.000000)" width="470" height="470" style="fill: rgb(255, 192, 180); fill-opacity: 1;"/></g><g id="strokes-3262a3cb-c489-8039-8007-939edf52c150-4480d0d3-a3a5-80af-8007-939e8218f8cf" class="strokes"><g class="inner-stroke-shape" transform="matrix(1.000000, 0.000000, 0.000000, 1.000000, 0.000000, 0.000000)"><defs><clipPath id="inner-stroke-render-4-4480d0d3-a3a5-80af-8007-939e8218f8cf-0"><use href="#stroke-shape-render-4-4480d0d3-a3a5-80af-8007-939e8218f8cf-0"/></clipPath><rect rx="35" ry="35" x="21.000000000000114" y="21" width="470" height="470" id="stroke-shape-render-4-4480d0d3-a3a5-80af-8007-939e8218f8cf-0" style="fill: none; stroke-width: 4; stroke: rgb(129, 32, 32); stroke-opacity: 1;"/></defs><use href="#stroke-shape-render-4-4480d0d3-a3a5-80af-8007-939e8218f8cf-0" clip-path="url('#inner-stroke-render-4-4480d0d3-a3a5-80af-8007-939e8218f8cf-0')"/></g></g></g><g id="shape-86585e51-05d3-80f9-8007-938282bac306" xml:space="preserve" width="97" height="97" rx="0" ry="0" style="fill: rgb(0, 0, 0);"><g id="shape-86585e51-05d3-80f9-8007-938282bac307" style="display: none;"><g class="fills" id="fills-86585e51-05d3-80f9-8007-938282bac307"><rect width="324.9609374999999" height="324.9609375" x="30.179687500000114" transform="matrix(1.000000, 0.000000, 0.000000, 1.000000, 0.000000, 0.000000)" style="fill: none;" ry="0" fill="none" rx="0" y="161.44921875"/></g><g fill="none" id="strokes-3262a3cb-c489-8039-8007-939edf56beea-86585e51-05d3-80f9-8007-938282bac307" class="strokes"><g class="inner-stroke-shape" transform="matrix(1.000000, 0.000000, 0.000000, 1.000000, 0.000000, 0.000000)"><defs><clipPath id="inner-stroke-render-6-86585e51-05d3-80f9-8007-938282bac307-0"><use href="#stroke-shape-render-6-86585e51-05d3-80f9-8007-938282bac307-0"/></clipPath><rect rx="0" ry="0" x="30.179687500000114" y="161.44921875" width="324.9609374999999" height="324.9609375" id="stroke-shape-render-6-86585e51-05d3-80f9-8007-938282bac307-0" style="fill: none; stroke-width: 2; stroke: rgb(0, 0, 0); stroke-opacity: 1;"/></defs><use href="#stroke-shape-render-6-86585e51-05d3-80f9-8007-938282bac307-0" clip-path="url('#inner-stroke-render-6-86585e51-05d3-80f9-8007-938282bac307-0')"/></g></g></g><g id="shape-86585e51-05d3-80f9-8007-938282bac308"><g class="fills" id="fills-86585e51-05d3-80f9-8007-938282bac308"><path d="M340.76861572265625,310.22113037109375L206.36557006835938,175.82464599609375C198.6268310546875,168.0823974609375,186.07391357421875,168.0823974609375,178.32843017578125,175.82464599609375L150.42193603515625,203.7376708984375L185.8226318359375,239.13836669921875C194.05047607421875,236.357666015625,203.48455810546875,238.2237548828125,210.04058837890625,244.78326416015625C216.63693237304688,251.38287353515625,218.4862060546875,260.8973388671875,215.63525390625,269.1553955078125L249.75961303710938,303.27630615234375C258.0177001953125,300.4285888671875,267.5386657714844,302.2711181640625,274.1315612792969,308.87420654296875C283.3443603515625,318.0870361328125,283.3443603515625,333.01513671875,274.1315612792969,342.23468017578125C264.9122009277344,351.450927734375,249.98391723632812,351.450927734375,240.76129150390625,342.23468017578125C233.83328247070312,335.2999267578125,232.11798095703125,325.1156005859375,235.63223266601562,316.57965087890625L203.80596923828125,284.7568359375L203.80596923828125,368.4996337890625C206.05068969726562,369.61181640625,208.17129516601562,371.092529296875,210.04058837890625,372.9619140625C219.25341796875,382.1746826171875,219.25341796875,397.102783203125,210.04058837890625,406.32562255859375C200.82778930664062,415.53515625,185.88970947265625,415.53515625,176.68362426757812,406.32562255859375C167.4708251953125,397.0994873046875,167.4708251953125,382.17144775390625,176.68362426757812,372.9619140625C178.96170043945312,370.68731689453125,181.59817504882812,368.96527099609375,184.41217041015625,367.81280517578125L184.41217041015625,283.28948974609375C181.59817504882812,282.1370849609375,178.96823120117188,280.4317626953125,176.68362426757812,278.14044189453125C169.705322265625,271.1654052734375,168.02676391601562,260.9207763671875,171.60467529296875,252.35107421875L136.70660400390625,217.4464111328125L44.544952392578125,309.59783935546875C36.80284118652344,317.3466796875,36.80284118652344,329.8995361328125,44.544952392578125,337.6417236328125L178.95492553710938,472.04150390625C186.69369506835938,479.7835693359375,199.24310302734375,479.7835693359375,206.99209594726562,472.04150390625L340.76861572265625,338.2647705078125C348.5108642578125,330.52276611328125,348.5108642578125,317.963134765625,340.76861572265625,310.22113037109375Z" style="fill: rgb(240, 81, 51);"/></g><g id="strokes-3262a3cb-c489-8039-8007-939edf58b39d-86585e51-05d3-80f9-8007-938282bac308" class="strokes"><g class="inner-stroke-shape"><defs><clipPath id="inner-stroke-render-7-86585e51-05d3-80f9-8007-938282bac308-0"><use href="#stroke-shape-render-7-86585e51-05d3-80f9-8007-938282bac308-0"/></clipPath><path d="M340.76861572265625,310.22113037109375L206.36557006835938,175.82464599609375C198.6268310546875,168.0823974609375,186.07391357421875,168.0823974609375,178.32843017578125,175.82464599609375L150.42193603515625,203.7376708984375L185.8226318359375,239.13836669921875C194.05047607421875,236.357666015625,203.48455810546875,238.2237548828125,210.04058837890625,244.78326416015625C216.63693237304688,251.38287353515625,218.4862060546875,260.8973388671875,215.63525390625,269.1553955078125L249.75961303710938,303.27630615234375C258.0177001953125,300.4285888671875,267.5386657714844,302.2711181640625,274.1315612792969,308.87420654296875C283.3443603515625,318.0870361328125,283.3443603515625,333.01513671875,274.1315612792969,342.23468017578125C264.9122009277344,351.450927734375,249.98391723632812,351.450927734375,240.76129150390625,342.23468017578125C233.83328247070312,335.2999267578125,232.11798095703125,325.1156005859375,235.63223266601562,316.57965087890625L203.80596923828125,284.7568359375L203.80596923828125,368.4996337890625C206.05068969726562,369.61181640625,208.17129516601562,371.092529296875,210.04058837890625,372.9619140625C219.25341796875,382.1746826171875,219.25341796875,397.102783203125,210.04058837890625,406.32562255859375C200.82778930664062,415.53515625,185.88970947265625,415.53515625,176.68362426757812,406.32562255859375C167.4708251953125,397.0994873046875,167.4708251953125,382.17144775390625,176.68362426757812,372.9619140625C178.96170043945312,370.68731689453125,181.59817504882812,368.96527099609375,184.41217041015625,367.81280517578125L184.41217041015625,283.28948974609375C181.59817504882812,282.1370849609375,178.96823120117188,280.4317626953125,176.68362426757812,278.14044189453125C169.705322265625,271.1654052734375,168.02676391601562,260.9207763671875,171.60467529296875,252.35107421875L136.70660400390625,217.4464111328125L44.544952392578125,309.59783935546875C36.80284118652344,317.3466796875,36.80284118652344,329.8995361328125,44.544952392578125,337.6417236328125L178.95492553710938,472.04150390625C186.69369506835938,479.7835693359375,199.24310302734375,479.7835693359375,206.99209594726562,472.04150390625L340.76861572265625,338.2647705078125C348.5108642578125,330.52276611328125,348.5108642578125,317.963134765625,340.76861572265625,310.22113037109375Z" id="stroke-shape-render-7-86585e51-05d3-80f9-8007-938282bac308-0" style="fill: none; stroke-width: 4; stroke: rgb(129, 32, 32); stroke-opacity: 1;"/></defs><use href="#stroke-shape-render-7-86585e51-05d3-80f9-8007-938282bac308-0" clip-path="url('#inner-stroke-render-7-86585e51-05d3-80f9-8007-938282bac308-0')"/></g></g></g></g><g id="shape-86585e51-05d3-80f9-8007-9385e784880a"><g class="fills" id="fills-86585e51-05d3-80f9-8007-9385e784880a"><path d="M239.36175537109375,281.0592041015625C232.14474487304688,274.8450927734375,232.14474487304688,265.38812255859375,239.36175537109375,259.17401123046875C246.13128662109375,253.34539794921875,253.02017211914062,253.422119140625,258.984375,259.3917236328125C265.25823974609375,265.671875,265.25823974609375,274.56048583984375,258.984375,280.840576171875C253.02017211914062,286.8106689453125,246.13128662109375,286.88739013671875,239.36175537109375,281.0587158203125ZM281.26324462890625,258.36431884765625C265.4873352050781,242.57318115234375,284.28143310546875,216.241455078125,304.0310363769531,226.4649658203125C317.11322021484375,233.23663330078125,319.1054382324219,249.9664306640625,307.9486083984375,259.36358642578125C299.4096984863281,266.5556640625,289.05914306640625,266.16796875,281.26324462890625,258.36431884765625ZM317.27459716796875,220.4805908203125C308.7793273925781,217.5531005859375,299.8050537109375,209.80523681640625,295.0433654785156,201.28778076171875C293.8306579589844,199.11920166015625,289.4255065917969,197.46807861328125,282.25042724609375,196.49371337890625C255.12384033203125,192.80865478515625,233.07089233398438,172.4278564453125,225.90206909179688,144.4173583984375C217.99118041992188,113.50778198242188,233.77197265625,80.19931030273438,263.14215087890625,65.81552124023438C277.64202880859375,58.714508056640625,298.8116149902344,57.37457275390625,314.1601257324219,62.586883544921875L324.987548828125,66.26364135742188L332.380615234375,59.866424560546875C342.0996398925781,51.45648193359375,359.733154296875,42.756561279296875,373.15185546875,39.750579833984375C387.93206787109375,36.439605712890625,408.77764892578125,39.55224609375,424.84283447265625,47.468780517578125C455.846435546875,62.747039794921875,474.70550537109375,99.37710571289062,468.811767578125,132.86965942382812C461.226318359375,175.97589111328125,425.91424560546875,204.4874267578125,383.17840576171875,202.0113525390625L368.02734375,201.1334228515625L363.09942626953125,207.60089111328125C353.0992431640625,220.72503662109375,333.75775146484375,226.1611328125,317.27459716796875,220.4805908203125Z" style="fill: rgb(129, 32, 32); fill-opacity: 1;"/></g><g id="strokes-3262a3cb-c489-8039-8007-939edf5b02d3-86585e51-05d3-80f9-8007-9385e784880a" class="strokes"><g class="inner-stroke-shape"><defs><clipPath id="inner-stroke-render-8-86585e51-05d3-80f9-8007-9385e784880a-0"><use href="#stroke-shape-render-8-86585e51-05d3-80f9-8007-9385e784880a-0"/></clipPath><path d="M239.36175537109375,281.0592041015625C232.14474487304688,274.8450927734375,232.14474487304688,265.38812255859375,239.36175537109375,259.17401123046875C246.13128662109375,253.34539794921875,253.02017211914062,253.422119140625,258.984375,259.3917236328125C265.25823974609375,265.671875,265.25823974609375,274.56048583984375,258.984375,280.840576171875C253.02017211914062,286.8106689453125,246.13128662109375,286.88739013671875,239.36175537109375,281.0587158203125ZM281.26324462890625,258.36431884765625C265.4873352050781,242.57318115234375,284.28143310546875,216.241455078125,304.0310363769531,226.4649658203125C317.11322021484375,233.23663330078125,319.1054382324219,249.9664306640625,307.9486083984375,259.36358642578125C299.4096984863281,266.5556640625,289.05914306640625,266.16796875,281.26324462890625,258.36431884765625ZM317.27459716796875,220.4805908203125C308.7793273925781,217.5531005859375,299.8050537109375,209.80523681640625,295.0433654785156,201.28778076171875C293.8306579589844,199.11920166015625,289.4255065917969,197.46807861328125,282.25042724609375,196.49371337890625C255.12384033203125,192.80865478515625,233.07089233398438,172.4278564453125,225.90206909179688,144.4173583984375C217.99118041992188,113.50778198242188,233.77197265625,80.19931030273438,263.14215087890625,65.81552124023438C277.64202880859375,58.714508056640625,298.8116149902344,57.37457275390625,314.1601257324219,62.586883544921875L324.987548828125,66.26364135742188L332.380615234375,59.866424560546875C342.0996398925781,51.45648193359375,359.733154296875,42.756561279296875,373.15185546875,39.750579833984375C387.93206787109375,36.439605712890625,408.77764892578125,39.55224609375,424.84283447265625,47.468780517578125C455.846435546875,62.747039794921875,474.70550537109375,99.37710571289062,468.811767578125,132.86965942382812C461.226318359375,175.97589111328125,425.91424560546875,204.4874267578125,383.17840576171875,202.0113525390625L368.02734375,201.1334228515625L363.09942626953125,207.60089111328125C353.0992431640625,220.72503662109375,333.75775146484375,226.1611328125,317.27459716796875,220.4805908203125Z" id="stroke-shape-render-8-86585e51-05d3-80f9-8007-9385e784880a-0" style="fill: none; stroke-width: 2; stroke: rgb(0, 0, 0); stroke-opacity: 1;"/></defs><use href="#stroke-shape-render-8-86585e51-05d3-80f9-8007-9385e784880a-0" clip-path="url('#inner-stroke-render-8-86585e51-05d3-80f9-8007-9385e784880a-0')"/></g></g></g></g></g></svg>